<svg width="182" height="90" viewBox="0 0 182 90" fill="none" xmlns="http://www.w3.org/2000/svg">
<path d="M90.8674 0.436157C90.8674 0.436157 93.5035 5.05473 116.743 6.30008C139.982 7.54544 154.168 12.3542 155.079 18.1178C155.079 18.1178 167.062 17.5893 169.251 26.1677C171.159 33.5923 173.353 41.0168 180.51 45.3659C173.319 49.5846 171.066 57.0656 169.098 64.4725C166.841 72.9593 154.861 72.408 154.861 72.408C153.834 78.1644 139.681 82.8605 116.434 83.9191C93.1841 84.9778 90.5128 89.5752 90.5128 89.5752C90.5128 89.5752 87.8767 84.9566 64.6377 83.7113C41.3987 82.4659 27.2843 77.5849 26.3015 71.8936C26.3015 71.8936 14.3178 72.4221 12.1292 63.8437C10.2214 56.4191 8.02758 48.9945 0.870361 44.6455C8.06093 40.4268 10.3144 32.9458 12.2819 25.5388C14.5389 17.0521 26.5191 17.6034 26.5191 17.6034C27.5458 11.8469 41.6988 7.15087 64.9466 6.09223C88.1944 5.03359 90.8674 0.436157 90.8674 0.436157Z" fill="#100E0F"/>
<path d="M174.235 37.3431C172.239 33.8061 171.109 29.6983 170.049 25.661C168.141 18.1642 158.386 17.6939 156.235 17.6851H155.805C154.824 11.9198 140.565 7.10928 117.038 5.86392C93.5098 4.61857 90.8737 0 90.8737 0C90.8737 0 88.1288 4.59743 64.6651 5.65607C41.2014 6.71471 26.8343 11.409 25.8778 17.1655H25.4478C23.2241 17.1549 13.5378 17.5477 11.5704 25.0287C11.0597 26.9716 10.4787 28.9127 9.8978 30.7816C8.80087 36.1048 5.84005 40.9893 1.51904 45.0777C7.6004 49.4937 9.65209 56.4145 11.4195 63.2631C13.3272 70.8303 23.01 71.3024 25.2337 71.3112H25.6637C26.6448 77.0061 40.903 81.8871 64.4299 83.1324C87.9568 84.3795 90.5929 88.9981 90.5929 88.9981C90.5929 88.9981 93.3378 84.4007 116.801 83.342C140.265 82.2834 154.632 77.5891 155.661 71.8326H156.091C158.314 71.8432 168.001 71.4504 169.968 63.8972C171.862 56.7756 174.042 49.6575 180.66 45.3631C178.087 43.0485 175.946 40.3041 174.235 37.3449M165.451 63.2296C164.213 67.9045 158.399 68.3854 156.031 68.3766H155.887L151.656 68.1423L151.069 71.3077C150.555 74.2582 139.489 78.8943 116.456 79.8808C102.176 80.4708 94.5646 82.4578 90.5385 84.3126C86.5281 82.4243 79.0041 80.3775 64.6581 79.6729C41.7051 78.5015 30.6042 73.7755 30.1128 70.8215L29.6231 67.6509L25.3899 67.8499H25.174C22.7345 67.8394 16.9971 67.3127 15.7966 62.6272C14.3118 56.9324 12.4058 49.5095 6.47188 44.1564C12.5199 38.8527 14.4856 31.3717 15.944 25.7615C17.1831 21.0865 22.996 20.6056 25.3636 20.6144H25.5075L29.739 20.8487L30.3252 17.6834C30.8394 14.8051 41.9052 10.1689 64.8669 9.18077C79.2182 8.59067 86.758 6.60374 90.7842 4.74891C94.7945 6.63721 102.319 8.68403 116.665 9.38862C139.618 10.56 150.718 15.286 151.21 18.24L151.7 21.4106L155.933 21.2116H156.149C158.588 21.2222 164.326 21.7488 165.526 26.4343C167.011 32.1292 168.917 39.552 174.851 44.9051C168.947 50.1384 166.981 57.5454 165.451 63.2279" fill="#9C832F"/>
<mask id="mask0_250_203" style="mask-type:luminance" maskUnits="userSpaceOnUse" x="6" y="44" width="169" height="42">
<path d="M6.43695 44.6037L6.27539 84.9973L174.797 85.6763L174.958 45.2826L6.43695 44.6037Z" fill="white"/>
</mask>
<g mask="url(#mask0_250_203)">
<path d="M15.7504 63.6338C16.9509 68.3193 22.7602 68.8459 25.1278 68.8548H25.3437L29.5769 68.6557L30.0666 71.8264C30.5563 74.7803 41.587 79.5046 64.6119 80.6777C78.9579 81.3841 86.4819 83.4291 90.4923 85.3174C94.5167 83.4608 102.058 81.4757 116.41 80.8856C139.371 79.8974 150.509 75.2612 151.023 72.3125L151.609 69.1472L155.841 69.3797H155.985C158.424 69.3902 164.165 68.9094 165.404 64.2344C166.933 58.5519 168.9 51.1432 174.877 45.8394C174.662 45.695 174.519 45.4783 174.304 45.3339C168.688 50.6394 166.794 57.761 165.338 63.2269C164.1 67.9018 158.286 68.3827 155.918 68.3739H155.774L151.543 68.1396L151.029 71.305C150.514 74.2554 139.448 78.8916 116.415 79.878C102.135 80.4681 94.5237 82.455 90.4975 84.3099C86.4872 82.4216 78.9632 80.3747 64.6171 79.6702C41.6642 78.4988 30.5633 73.7728 30.0719 70.8188L29.5822 67.6482L25.3489 67.8472H25.1331C22.6935 67.8366 16.9562 67.3099 15.7557 62.6244C14.3428 57.1463 12.5053 49.9384 6.93113 44.661C6.78722 44.8037 6.57134 45.0204 6.35547 45.163C12.4316 50.5161 14.3393 57.9389 15.7522 63.6338" fill="#BEA732"/>
</g>
<path d="M30.3787 18.618C30.8929 15.6675 41.9587 11.0313 64.9924 10.1154C79.3437 9.52527 86.8835 7.53834 90.9097 5.68351C94.92 7.57181 102.444 9.61863 116.79 10.3232C139.815 11.4964 150.844 16.2206 151.335 19.1024L151.825 22.273L156.058 22.074H156.274C158.714 22.0845 164.451 22.6112 165.652 27.2967C167.136 32.9915 169.042 40.4144 174.976 45.7675C168.928 51.0712 166.963 58.5522 165.504 64.1625C164.267 68.8374 158.452 69.3183 156.085 69.3095H155.941L151.709 69.0752L151.123 72.2405C150.609 75.191 139.543 79.8272 116.509 80.8136C102.23 81.4037 94.6181 83.3906 90.592 85.2455C86.5816 83.3572 79.0576 81.3103 64.7116 80.6058C41.7586 79.4344 30.6577 74.7084 30.1663 71.7544L29.6767 68.5837L25.4434 68.7828H25.2275C22.788 68.7722 17.0506 68.2455 15.8501 63.56C14.3653 57.8652 12.4593 50.4424 6.52539 45.0893C12.5734 39.7855 14.5391 32.3046 15.9976 26.6943C17.2366 22.0194 23.0495 21.5385 25.4171 21.5473H25.561L29.7925 21.7816L30.3787 18.6162V18.618ZM64.6484 6.65937C41.1847 7.64579 26.8176 12.4123 25.8611 18.1688H25.4311C23.2074 18.1582 13.5211 18.551 11.5537 26.1042C9.588 33.5129 7.33448 40.9199 0 45.1386C7.22918 49.4155 9.49499 56.914 11.4028 64.3368C13.3105 71.8336 23.0653 72.304 25.217 72.3128H25.647C26.6281 78.0076 40.8864 82.8886 64.3412 84.134C87.7961 85.3793 90.5042 89.9997 90.5042 89.9997C90.5042 89.9997 93.2492 85.4022 116.713 84.3436C140.177 83.2849 154.472 78.5906 155.5 72.8342H155.93C158.154 72.8447 167.84 72.4519 169.808 64.971C171.773 57.5622 174.027 50.1553 181.363 45.8643C174.134 41.5875 171.868 34.0889 169.96 26.7383C168.052 19.2415 158.298 18.699 156.146 18.6902H155.716C154.735 12.9249 140.477 8.11434 116.95 6.86898C93.4229 5.62186 90.7868 1.0033 90.7868 1.0033C90.7868 1.0033 88.1858 5.60072 64.6501 6.65937" fill="#E3BF5C"/>
<path d="M27.2101 39.7031C29.3601 40.1434 33.2283 41.8151 33.2143 45.4155C33.2002 48.7271 29.3198 50.6559 27.1663 51.0082V51.1526C31.0415 50.5924 34.2077 48.3008 34.2199 45.4208C34.234 42.1092 31.1556 40.2245 27.2119 39.5604V39.7048L27.2101 39.7031ZM21.8589 32.4088L21.7905 49.5461C21.7852 51.0575 21.0674 51.1279 20.4917 51.1966V51.2688C22.2854 51.2759 22.7909 50.1257 22.7961 48.9014L22.8646 31.6214C22.8716 29.6768 23.521 29.0321 24.0247 28.4579V28.3856C22.7294 29.3157 21.9344 30.8253 21.8572 32.4088M25.95 31.9227L25.8798 49.636C25.8745 51.1473 25.0128 51.216 24.4389 51.2865V51.3587C25.6569 51.5084 26.738 50.5766 26.8855 49.3524C26.8855 49.2079 26.8855 49.0635 26.8855 48.9208L26.9697 27.7515C26.1746 29.0444 25.8113 30.4835 25.9482 31.9244M23.872 31.3379L23.8 49.5549C23.7948 51.0663 23.0769 51.1367 22.5013 51.2054V51.2777C24.295 51.2847 24.8724 50.1345 24.8776 48.9102L24.9514 30.5487C24.9584 28.9652 26.6134 27.6035 26.903 26.8126C27.2593 27.5348 32.7071 28.4191 32.6895 32.8122C32.6772 35.8366 29.3671 38.271 27.2137 38.6233V38.7677C31.0889 38.2076 33.6829 35.4808 33.6934 32.8897C33.7127 27.9928 27.8314 27.6828 26.903 26.5977C26.4677 27.6758 23.8808 28.6745 23.8702 31.3379M26.9065 25.6606C27.4734 27.3182 34.7184 27.6352 34.6973 32.821C34.6815 36.853 29.6497 39.1376 27.2101 39.1271V39.2715C29.7199 39.3543 35.2379 40.8163 35.2203 45.4243C35.2028 49.7452 29.6708 51.5947 27.3032 51.6564V51.8008C33.1142 51.5366 36.2102 48.7411 36.2242 45.5C36.2383 41.8996 33.3055 39.6555 27.928 39.2028C33.3108 38.7924 35.6907 35.7785 35.7012 32.969C35.7258 26.9201 27.9034 27.3939 26.9785 25.518L26.9065 25.6624V25.6606ZM26.9118 24.4382C27.691 27.0328 36.7315 26.6383 36.7069 32.8298C36.6876 37.51 31.9471 39.1464 30.1534 39.1394V39.2838C31.9454 39.3631 37.251 40.2491 37.2317 45.4331C37.2123 50.4004 31.9699 51.6757 30.1762 51.7409V51.8854C35.8434 51.7638 38.2952 48.75 38.3075 45.5089C38.3216 41.9806 36.0347 39.5234 31.1591 39.2151C36.0382 38.9474 37.7722 35.7856 37.7845 32.9778C37.8108 26.2102 28.0508 27.0346 26.9855 24.366V24.4382H26.9135H26.9118Z" fill="url(#paint0_linear_250_203)"/>
<path d="M45.1378 28.1117C45.638 28.6172 45.8504 29.3394 45.8469 30.0581L45.7749 48.203C45.7714 48.9234 45.5538 49.5699 45.05 50.1441C45.5538 49.8588 46.1277 49.7161 46.7016 49.7901L53.8044 49.8182C55.0961 49.8235 56.2457 49.3955 56.3247 47.6675H56.2527C56.179 48.1713 56.1035 49.0344 54.5257 49.0291L48.2847 49.0045C47.4966 48.9287 46.6349 49.1418 45.9153 49.4994C46.5629 49.0696 46.8525 48.3509 46.856 47.5583L46.9227 30.7821C46.9982 29.9912 46.6419 29.269 45.9978 28.8339C46.7139 29.269 47.5019 29.4152 48.3636 29.3482L54.6767 29.3729C56.3264 29.38 56.3949 30.2431 56.3931 30.7486H56.4651C56.4721 29.0206 55.326 28.5838 53.9623 28.5785L46.8595 28.5503C46.2856 28.5485 45.7117 28.4023 45.1396 28.1117H45.1378Z" fill="url(#paint1_linear_250_203)"/>
<path d="M47.0218 41.0861L53.6209 41.1847C54.5528 41.1882 54.623 41.6216 54.6213 41.9809H54.6932C54.7687 41.2622 54.2685 40.6123 53.5507 40.5365H53.2628L47.0218 40.4379V41.0861Z" fill="url(#paint2_linear_250_203)"/>
<path d="M42.6046 26.7359V26.8081C43.1785 26.8821 43.8946 26.9578 43.8894 28.4692L43.8051 49.4941C43.7998 51.0054 43.082 51.0758 42.5063 51.1445V51.289L54.1285 51.3348C55.4922 51.3401 56.5698 50.912 56.6488 49.184H56.5768C56.5031 49.6878 56.4276 50.5509 54.8498 50.5456L45.5233 50.5087C45.0214 50.5069 44.5896 50.6496 44.1596 50.8627C44.6633 50.5051 44.9529 49.8587 44.8827 49.2809L44.9635 28.832C45.0372 28.1838 44.7529 27.6078 44.1807 27.245C44.6107 27.4634 45.0407 27.6078 45.5426 27.6096L54.8691 27.6466C56.5189 27.6536 56.5874 28.5167 56.5856 29.0223H56.6576C56.6646 27.2943 55.5185 26.8574 54.1548 26.8521L42.6046 26.8063V26.7341V26.7359Z" fill="url(#paint3_linear_250_203)"/>
<path d="M40.6109 26.8755C41.1848 26.9495 41.9008 27.0252 41.8956 28.5366L41.8113 49.5615C41.8061 51.0728 41.0882 51.1433 40.5126 51.212V51.3564C42.2343 51.3634 42.8117 50.2132 42.817 48.989L42.896 29.1161C42.9012 27.8919 42.4028 26.8103 40.6091 26.7311V26.8755H40.6109Z" fill="url(#paint4_linear_250_203)"/>
<path d="M53.6191 38.9469L47.02 38.8483V39.4965L53.2593 39.5934C53.9754 39.7396 54.623 39.2393 54.6985 38.5189C54.6985 38.4466 54.6985 38.3022 54.6985 38.23H54.6265C54.6265 38.5171 54.5511 39.0209 53.6191 38.9451" fill="url(#paint5_linear_250_203)"/>
<path d="M53.6191 37.3724L47.02 37.2738V37.922L53.2593 38.0189C53.9772 38.0946 54.623 37.6648 54.6985 36.9444C54.6985 36.8722 54.6985 36.7277 54.6985 36.6555H54.6265C54.6265 36.9426 54.5511 37.3742 53.6191 37.3707" fill="url(#paint6_linear_250_203)"/>
<path d="M67.1804 38.5639C67.8281 38.2786 68.2598 37.7766 68.5494 37.1301C68.8337 37.7801 69.3339 38.2856 69.978 38.5763C69.4024 38.9338 68.8986 39.5081 68.5371 40.1545C68.2528 39.5046 67.8245 38.9268 67.1804 38.5657M65.8167 38.5587C67.1067 38.7084 68.4634 40.3694 68.5318 41.4492C68.6793 40.4417 70.05 38.7189 71.3417 38.5798C70.05 38.5023 68.6933 36.8412 68.5547 35.8319C68.4792 36.8395 67.1085 38.49 65.8167 38.5569M58.6893 26.7938C59.1913 26.8678 59.9793 26.9435 59.9741 28.4549L59.8898 49.7669C59.8846 51.2782 59.1667 51.3487 58.5911 51.4174V51.5618C60.3128 51.5689 60.8902 50.4186 60.8955 49.1944L60.9762 29.1049C60.9815 27.8806 60.483 26.7269 58.6893 26.7198V26.7921V26.7938ZM61.9801 29.1101L61.8994 49.1997C61.8941 50.4239 62.3926 51.5777 64.1863 51.5847V51.4403C63.6843 51.3663 62.8963 51.2905 62.9015 49.7792L62.9858 28.4672C62.9928 26.8836 63.7089 26.8854 64.2845 26.8167V26.6723C62.4909 26.6652 61.9854 27.8155 61.9801 29.1119M63.9177 29.0467L63.837 49.1363C63.8317 50.3605 64.3302 51.5142 66.1239 51.5213V51.3768C65.55 51.3029 64.8339 51.2271 64.8392 49.7158L64.9234 28.4743C64.9304 26.8907 65.7184 26.8942 66.2221 26.8238V26.6793C64.5004 26.6723 63.923 27.8225 63.9177 29.0467ZM71.0293 26.8431C71.6032 26.9171 72.3193 26.9929 72.314 28.5042L72.2298 49.8162C72.2245 51.3275 71.5067 51.398 70.931 51.4667V51.6111C72.7247 51.6182 73.2302 50.4679 73.2355 49.2437L73.3162 29.1542C73.3215 27.93 72.823 26.7762 71.0293 26.7692V26.8414V26.8431ZM73.1091 26.8519C73.611 26.9259 74.3991 27.0017 74.3938 28.513L74.3096 49.825C74.3043 51.3363 73.5865 51.4068 73.0108 51.4755V51.6199C74.7325 51.627 75.31 50.4767 75.3152 49.2525L75.396 29.163C75.4012 27.9388 74.9028 26.785 73.1091 26.778V26.8502V26.8519ZM76.3297 29.0961L76.2489 49.1856C76.2437 50.4098 76.7421 51.5636 78.5358 51.5706V51.4262C78.0338 51.3522 77.2458 51.2764 77.2511 49.7651L77.3353 28.5236C77.3423 26.94 78.0584 26.9418 78.6341 26.8731V26.7286C76.8404 26.7216 76.3349 27.8718 76.3297 29.0961Z" fill="url(#paint7_linear_250_203)"/>
<path d="M86.8978 40.8124C90.4835 41.258 93.0617 42.1335 93.0511 45.1579L93.0353 49.3344C92.9581 50.5586 93.8866 51.6419 95.1063 51.7194C95.2503 51.7194 95.3222 51.7194 95.4644 51.7194V51.575C94.8905 51.501 94.0305 51.4252 94.0375 49.9139L94.055 45.4503C94.0708 41.5628 90.6291 40.9727 86.8996 40.6697V40.8142L86.8978 40.8124ZM81.7642 32.7273L81.6712 56.0561C81.6642 57.6397 80.9481 57.6379 80.3724 57.7066V57.8511C82.1661 57.8581 82.6716 56.7079 82.6769 55.4837L82.7699 31.9381C82.7769 29.9935 83.4263 29.3488 83.93 28.7745V28.7023C82.5645 29.5601 81.7677 31.0697 81.7625 32.7255M85.7851 32.1689L85.6921 55.4977C85.6868 56.722 86.1853 57.8035 87.979 57.8828V57.7383C87.405 57.7366 86.689 57.6608 86.6942 56.0773L86.8048 28.0682C86.0115 29.2889 85.7184 30.728 85.7833 32.1689M83.7773 31.5841L83.6825 55.4167C83.6053 56.6409 84.5337 57.7242 85.7535 57.8017H86.1116V57.6591C85.5376 57.6573 84.6776 57.5816 84.6829 55.998L84.783 30.7967C84.79 29.2131 86.445 27.996 86.7346 27.0606C87.9491 28.2179 93.1126 28.6706 93.095 33.3508C93.081 36.9513 89.0548 39.1672 86.8996 39.5899V39.7344C90.7748 39.102 94.0866 36.5954 94.0989 33.4988C94.12 28.3148 87.663 28.1439 86.7364 26.9162C86.0852 28.2091 83.7878 28.9207 83.7755 31.5841M86.8136 25.9086C87.1664 27.4939 95.1994 27.8867 95.1783 33.3579C95.1607 37.9659 89.4848 40.0321 87.1155 40.0937V40.2382C87.3296 40.2382 95.1485 40.7032 95.1309 44.9501L95.1134 49.4136C95.1081 50.6379 95.6065 51.7916 97.4002 51.7987V51.6542C96.8263 51.5802 96.1102 51.5045 96.1155 49.9932L96.1348 45.1685C96.1524 40.5605 90.7028 40.1783 87.9754 40.0955C93.0704 39.6111 96.1664 36.8878 96.1804 33.4318C96.205 27.0958 87.4524 27.42 86.8136 25.6902V25.9069V25.9086ZM86.8188 24.6844C87.742 27.2808 97.1405 26.8862 97.1159 33.2945C97.0948 38.5507 92.3544 39.9 90.5607 39.8929V40.0373C91.3487 40.0409 97.0878 40.4231 97.0703 44.8162L97.0527 49.352C97.0474 50.5762 97.5459 51.73 99.3396 51.737V51.5926C98.7657 51.5186 98.1216 51.4428 98.1268 49.9315L98.1461 45.1068C98.1637 40.4989 94.5798 40.0514 91.6383 39.9686C96.4472 39.4842 98.1795 36.8984 98.1918 33.5146C98.2198 26.4582 87.8859 27.2086 86.8206 24.6122V24.6844H86.8188Z" fill="url(#paint8_linear_250_203)"/>
<path d="M107.695 45.2168L107.737 34.4877C107.753 30.6723 109.91 29.5274 110.558 28.8105C111.272 29.5327 113.348 30.6935 113.332 34.5106L113.29 45.2397C113.276 48.9846 111.117 50.2 110.47 50.9169C109.827 50.1947 107.679 48.9617 107.695 45.2168ZM106.733 34.3415L106.689 45.3577C106.672 49.6786 109.541 49.978 110.468 51.2058C111.405 50.0573 114.277 49.7085 114.294 45.3894L114.338 34.3732C114.356 30.0523 111.486 29.7529 110.559 28.5251C109.622 29.7458 106.751 30.0224 106.733 34.3415ZM105.685 45.2097L105.728 34.4806C105.747 29.7282 109.55 29.383 110.561 27.8029C111.56 29.3918 115.431 29.8392 115.412 34.5194L115.37 45.2485C115.351 49.9287 111.547 50.3462 110.464 51.9244C109.466 50.3356 105.666 49.89 105.684 45.2097M104.724 34.3327L104.68 45.2767C104.659 50.7495 109.11 49.9023 110.464 52.1393C111.837 49.9129 116.281 50.7953 116.304 45.3225L116.348 34.3063C116.369 28.8334 111.918 29.6806 110.563 27.4436C109.19 29.7423 104.746 28.8598 104.724 34.3327ZM103.676 45.4176L103.72 34.1847C103.743 28.6414 109.478 29.3107 110.566 26.5805C111.632 29.3213 117.372 28.7682 117.351 34.2393L117.308 45.4722C117.286 50.9451 111.549 50.3462 110.461 53.0764C109.396 50.3356 103.655 50.8887 103.676 45.4176ZM102.716 34.3239L102.672 45.3401C102.647 51.5316 109.682 50.6967 110.459 53.508C111.26 50.7037 118.287 51.5951 118.311 45.4035L118.355 34.3873C118.38 28.1957 111.274 29.1029 110.568 26.2194C109.84 29.0254 102.74 28.1323 102.716 34.3239Z" fill="url(#paint9_linear_250_203)"/>
<path d="M133.216 27.0275C133.79 27.1015 134.65 27.1772 134.644 28.6886L134.586 43.233C134.572 46.9779 133.059 48.2673 131.124 48.2602C129.186 48.2532 127.613 46.9497 127.627 43.2066L127.685 28.6621C127.692 27.0786 128.624 27.0821 129.126 27.0116V26.9394C127.908 26.7897 126.827 27.6511 126.68 28.8735C126.68 29.018 126.68 29.1624 126.68 29.3051L126.625 43.1291C126.608 47.4499 128.394 49.1128 131.05 49.1233C133.704 49.1339 135.576 47.4852 135.594 43.1661L135.648 29.3421C135.725 28.1178 134.869 27.0345 133.649 26.9588H133.219V27.0293L133.216 27.0275ZM136.65 29.3438L136.594 43.3845C136.577 47.9925 134.63 49.9283 131.117 49.9142C127.601 49.9001 125.672 47.9484 125.69 43.3404L125.746 29.2998C125.751 28.0756 125.253 26.9218 123.459 26.9148V26.987C124.033 27.061 124.749 27.1367 124.744 28.648L124.686 43.1925C124.665 48.6654 127.312 50.6188 131.113 50.6347C134.915 50.6505 137.577 48.7164 137.6 43.2436L137.658 28.6991C137.665 27.1156 138.381 27.1173 138.957 27.0486V26.9764C137.163 26.9694 136.657 28.1196 136.652 29.3438M138.588 29.3526L138.532 43.6099C138.511 49.0828 135.273 51.445 131.039 51.4291C126.806 51.4115 123.587 49.0229 123.61 43.5501L123.666 29.2927C123.672 28.0685 123.173 26.9148 121.379 26.9077V26.9799C121.953 27.0539 122.669 27.1297 122.664 28.641L122.606 43.3299C122.582 49.5937 126.804 52.1319 131.038 52.1478C135.271 52.1654 139.513 49.5901 139.537 43.3968L139.595 28.7079C139.602 27.1244 140.318 27.1261 140.822 27.0574V26.9852C139.172 26.9782 138.593 28.1284 138.59 29.3526" fill="url(#paint10_linear_250_203)"/>
<path d="M154.459 28.8397L145.778 28.8044C144.486 28.7992 143.337 29.155 143.26 30.8108H143.332C143.405 30.307 143.481 29.5883 145.059 29.5936L152.879 29.6253C153.739 29.701 154.529 29.4879 155.249 29.1303C154.601 29.5601 154.239 30.2788 154.308 31.0714V31.3603C154.287 36.3999 143.295 40.2452 143.267 47.3016L143.256 49.965C143.249 51.5485 142.531 51.619 142.029 51.6154V51.8321C143.751 51.7669 144.328 50.6889 144.334 49.4647L144.341 47.52C144.367 40.8952 155.287 36.9072 155.31 31.5065L155.315 30.3545C155.247 29.6341 155.536 28.9876 156.04 28.5578V28.4856C155.608 28.7727 155.034 28.9137 154.461 28.8397M145.855 27.1487C144.564 27.1434 143.414 27.4992 143.337 29.155H143.481C143.554 28.579 143.558 27.9325 145.208 27.9378L155.754 27.9801C156.256 27.9818 156.688 27.8392 157.118 27.626C156.614 27.9836 156.324 28.6301 156.323 29.2061L156.314 31.5101C156.293 36.6218 145.369 41.6191 145.346 47.1625L145.336 49.6831C145.329 51.2667 144.611 51.4798 144.037 51.5503V51.6947L156.879 51.7458C158.171 51.7511 159.32 51.3953 159.326 49.7395H159.254C159.18 50.3155 159.176 50.9637 157.527 50.9567L147.052 50.9144C146.55 50.9126 146.119 51.0553 145.689 51.2684C146.192 50.9109 146.482 50.2644 146.484 49.6884L146.492 47.3844C146.514 42.056 157.437 37.3476 157.46 31.732L157.471 29.2113C157.478 27.6278 158.195 27.4146 158.769 27.3442V27.1997L145.857 27.1487H145.855ZM158.401 29.5037L158.392 31.5206C158.366 38.0011 147.445 42.1335 147.423 47.5341L147.417 48.6861C147.486 49.4066 147.196 50.053 146.693 50.4828V50.555C147.196 50.1975 147.77 50.0548 148.344 50.1288L157.025 50.164C158.316 50.1693 159.466 49.8135 159.543 48.1577H159.471C159.398 48.6615 159.322 49.3801 157.744 49.3749L149.924 49.3432C149.064 49.2674 148.274 49.4805 147.554 49.8381C148.202 49.4083 148.563 48.6896 148.495 47.897V47.5376C148.516 42.4981 159.51 38.4379 159.536 31.5964L159.547 28.933C159.554 27.3495 160.272 27.279 160.774 27.2825V27.1381C158.91 27.131 158.402 28.2813 158.397 29.5055" fill="url(#paint11_linear_250_203)"/>
<path d="M43.4012 61.4488L43.3697 69.585C43.3697 69.585 41.6479 69.578 41.6514 68.7149L41.6813 61.3713L40.1034 61.3643C39.0276 61.3608 38.8872 60.5681 38.8907 59.8477C39.3207 59.9939 39.8226 60.0678 40.3246 60.0696L44.8439 60.0872C45.3459 60.089 45.8478 60.0185 46.2796 59.8776C46.2778 60.5258 46.1304 61.3889 45.0545 61.3854L43.4048 61.3784V61.4506L43.4012 61.4488Z" fill="#E6D584"/>
<path d="M48.766 69.5938C48.766 69.5938 47.0442 69.5868 47.0477 68.7236L47.0846 59.5799C47.1565 59.5799 48.7344 59.5147 48.7309 60.5945L48.7238 62.3947C48.7238 62.6836 48.6501 62.8985 48.5764 63.1856C49.0801 62.828 49.654 62.6853 50.2279 62.6888C51.5916 62.6941 52.8079 63.4199 52.8026 64.9312L52.7833 69.6114C52.7833 69.6114 51.0616 69.6044 51.0651 68.7412L51.0792 65.1408C51.0827 64.2759 50.6544 63.9148 50.0086 63.9131C49.3627 63.9113 48.5711 64.3393 48.5694 64.9876L48.766 69.5973V69.5938Z" fill="#E6D584"/>
<path d="M54.3699 67.4007L54.3804 64.9523C54.3857 63.5114 55.3931 62.6518 57.2587 62.6589C59.1244 62.6659 59.9809 63.5343 59.9756 64.829C59.9721 65.9088 59.321 66.9868 57.2412 66.978C56.8112 66.978 56.3812 66.9022 56.0232 66.7578V67.1893C56.0179 67.982 56.5199 68.3431 57.4518 68.3466C58.7435 68.3519 59.607 67.7794 59.6088 66.9868C59.8229 67.2757 59.9651 67.6368 60.0353 68.0683C60.0318 69.0037 58.9524 69.6484 57.4465 69.6413C55.437 69.7047 54.2927 68.8363 54.3699 67.3972M56.0284 65.6076C56.3145 65.6815 56.6743 65.7538 57.0323 65.7555C57.9643 65.759 58.3241 65.4719 58.3276 64.9681C58.3311 64.4644 58.045 64.031 57.2552 64.0275C56.4655 64.024 56.1057 64.4556 56.1021 65.2465V65.6058H56.0284V65.6076Z" fill="#E6D584"/>
<path d="M69.1448 65.4358C70.7191 66.3782 71.286 68.3968 72.0688 69.6246C71.781 69.695 71.5669 69.7673 71.279 69.7655C70.6331 69.8342 70.061 69.4731 69.7047 68.8953C68.9921 67.5971 68.4253 66.0823 66.7772 65.5714L66.7614 69.7479C66.7614 69.7479 65.0397 69.7408 65.0432 68.8777L65.0766 60.3099L68.09 60.3223C70.0996 60.3311 71.4598 60.9124 71.4528 62.7126V63.1441C71.5177 64.3684 70.5805 65.4446 69.2888 65.5115C69.2888 65.4393 69.2168 65.4393 69.1448 65.4393M66.8632 61.6099L66.8527 64.3455L68.2164 64.3507C69.3642 64.356 69.796 63.8522 69.8012 62.9169C69.8065 61.9816 69.3046 61.6187 68.1567 61.6134L66.865 61.6081L66.8632 61.6099Z" fill="#E6D584"/>
<path d="M79.0466 67.4919C79.0413 68.9328 78.0339 69.7924 75.8804 69.7836C73.7287 69.7748 72.7265 68.9063 72.7336 67.4672L72.7441 65.0188C72.7494 63.5779 73.7568 62.7183 75.9103 62.7271C78.062 62.7359 79.0641 63.6043 79.0571 65.0435L79.0466 67.4919ZM77.3336 65.2531C77.3371 64.4604 77.123 64.0288 75.9032 64.0236C74.6835 64.0183 74.4658 64.4498 74.4641 65.2425L74.4553 67.2594C74.4518 68.052 74.6659 68.4836 75.8857 68.4889C77.1055 68.4942 77.3231 68.0626 77.3248 67.2699L77.3336 65.2531Z" fill="#E6D584"/>
<path d="M81.7652 63.9079L82.046 65.6376C82.1145 66.5025 82.541 67.2952 83.1851 67.8747C83.8327 67.3005 84.2662 66.5113 84.3417 65.6464L84.5646 63.9184C84.712 62.8387 86.3618 62.8457 86.3618 62.8457L86.0652 65.4368C85.844 66.8759 85.1209 68.1689 83.9696 69.0285L83.4659 69.386C82.6024 70.0307 81.9548 70.6032 81.9513 71.4681C81.9513 71.8274 82.0197 72.2607 82.2338 72.6218C82.018 72.7645 81.8021 72.8367 81.516 72.835C80.8701 72.8332 80.298 72.3981 80.3015 71.3906C80.3068 70.2386 81.1703 69.5217 82.1057 68.8065C81.0334 68.0103 80.3928 66.7843 80.2541 65.4861L79.9768 62.8933C80.0488 62.8933 81.6266 62.9003 81.767 63.9079" fill="#E6D584"/>
<path d="M91.1627 64.9483C91.1627 64.5168 90.8784 64.0834 89.8745 64.0799C88.8706 64.0764 87.793 64.4322 87.7877 65.512C87.5016 65.1509 87.2893 64.7176 87.291 64.2138C87.2963 63.0618 88.8039 62.78 89.8798 62.7835C91.8174 62.7905 92.8178 63.5867 92.8125 65.0276L92.7932 69.78C92.5071 69.6356 92.1491 69.5616 91.7893 69.5598C91.1434 69.5581 90.4976 69.7712 89.7797 69.7677C88.416 69.7624 87.1278 69.2533 87.1331 67.7402C87.1418 65.364 90.5836 66.0263 91.161 64.9483M91.1575 66.317C90.8679 67.0357 88.7881 66.5953 88.7846 67.8195C88.7828 68.3955 89.2111 68.6844 89.9289 68.6879C90.3589 68.6879 90.7187 68.6192 91.1487 68.4765L91.1575 66.317Z" fill="#E6D584"/>
<path d="M94.2734 59.7823C94.3454 59.7823 95.9952 59.7894 95.9917 60.6525L95.9653 67.4201C95.9618 68.1405 95.9583 69.3647 96.8903 69.3683C96.6744 69.7276 96.2426 69.9425 95.8126 69.8685C94.7368 69.865 94.3103 68.9261 94.3138 67.8464L94.3454 59.7823H94.2734Z" fill="#E6D584"/>
<path d="M101.315 60.3822L104.329 60.3945C106.338 60.4033 107.698 60.9846 107.691 62.7848V63.1442C107.686 63.9368 107.324 64.6555 106.679 65.0131C107.395 65.376 107.821 66.1704 107.819 66.9613V67.2502C107.811 68.9782 106.373 69.6933 104.293 69.6845L102.716 69.6775C102.716 69.6775 101.28 69.6722 101.283 68.8073L101.317 60.3822H101.315ZM103.103 61.6857L103.093 64.349L104.457 64.3543C105.604 64.3596 105.966 63.8558 105.97 62.9205C105.973 61.9851 105.473 61.6945 104.325 61.6892L103.105 61.6839L103.103 61.6857ZM103.088 65.6455L103.077 68.4532L104.369 68.4585C105.589 68.4638 106.164 68.1062 106.168 67.0969C106.171 66.0894 105.671 65.6543 104.523 65.6508L103.088 65.6455Z" fill="#E6D584"/>
<path d="M109.259 62.9324C109.331 62.9324 110.981 62.9394 110.978 63.8025L110.953 69.8514C110.953 69.8514 109.231 69.8444 109.235 68.9812L109.259 62.9324ZM109.34 60.5562L110.488 60.5614C110.704 60.5614 110.99 60.7799 110.988 60.9243L110.985 62.0041L109.837 61.9988C109.621 61.9988 109.407 61.8526 109.337 61.6359L109.34 60.5562Z" fill="#E6D584"/>
<path d="M112.463 68.9895L112.487 62.8684C112.773 63.0128 113.131 63.1591 113.491 63.1608C114.065 63.1626 114.641 62.8772 115.429 62.8807C116.361 62.8843 117.149 63.2471 117.145 64.112C117.072 64.6158 116.854 65.0473 116.566 65.4049C116.57 64.6123 115.926 64.2512 115.208 64.2476C114.85 64.2476 114.562 64.3163 114.202 64.3868L114.181 69.8597C114.181 69.8597 112.459 69.8526 112.463 68.9895Z" fill="#E6D584"/>
<path d="M119.157 64.0487L119.437 65.7785C119.506 66.6434 119.932 67.436 120.576 68.0156C121.224 67.4413 121.658 66.6522 121.733 65.7873L121.956 64.0593C122.103 62.9795 123.753 62.9866 123.753 62.9866L123.457 65.5777C123.235 67.0168 122.512 68.3097 121.361 69.1693L120.857 69.5269C119.994 70.1716 119.346 70.7441 119.343 71.609C119.343 71.9683 119.411 72.4016 119.625 72.7627C119.409 72.9054 119.193 72.9776 118.907 72.9759C118.262 72.9741 117.689 72.539 117.693 71.5314C117.698 70.3794 118.49 69.6625 119.497 68.9474C118.425 68.1512 117.784 66.9252 117.645 65.627L117.368 63.0341C117.44 63.0341 118.946 63.0412 119.158 64.0487" fill="#E6D584"/>
<path d="M128.479 65.1051C128.479 64.6735 128.195 64.2402 127.191 64.2367C126.187 64.2331 125.109 64.5889 125.104 65.6687C124.818 65.3076 124.605 64.8743 124.607 64.3705C124.612 63.2185 126.12 62.9367 127.196 62.9402C129.134 62.9473 130.134 63.7434 130.129 65.1843L130.109 69.9368C129.823 69.7923 129.465 69.7183 129.105 69.7166C128.46 69.7148 127.814 69.928 127.096 69.9244C125.732 69.9191 124.444 69.4101 124.449 67.897C124.458 65.5208 127.972 66.1831 128.477 65.1051M128.474 66.472C128.184 67.1906 126.104 66.7503 126.101 67.9745C126.099 68.5505 126.527 68.8394 127.245 68.8429C127.675 68.8429 128.035 68.7742 128.465 68.6315L128.474 66.472Z" fill="#E6D584"/>
<path d="M135.815 65.3525C135.818 64.632 135.46 64.2709 134.6 64.2674C134.17 64.2674 133.738 64.3361 133.38 64.4066L133.359 69.8794C133.359 69.8794 131.638 69.8724 131.641 69.0093L131.666 62.8882C132.024 63.0344 132.454 63.1788 132.812 63.1806C133.458 63.1823 134.033 62.897 134.749 62.9005C136.113 62.9058 137.473 63.3426 137.466 65.0706L137.447 69.8953C137.447 69.8953 135.725 69.8883 135.729 69.0251L135.815 65.3525Z" fill="#E6D584"/>
<path d="M139.043 63.0557C139.115 63.0557 140.765 63.0628 140.762 63.9259L140.737 69.9748C140.737 69.9748 139.015 69.9677 139.019 69.1046L139.043 63.0557ZM139.126 60.6813L140.274 60.6866C140.49 60.6866 140.776 60.905 140.774 61.0494L140.77 62.1292L139.623 62.1239C139.407 62.1239 139.193 61.9777 139.122 61.7611L139.126 60.6813Z" fill="#E6D584"/>
<path d="M32.7194 65.5056C34.0848 65.0071 34.3007 64.7922 35.3836 63.0677C36.3805 64.9437 36.8824 65.0899 37.9565 65.5268C36.735 65.953 35.7276 66.8866 35.3625 68.1813C34.9378 66.8831 34.0093 65.872 32.7194 65.5074M35.2976 66.7387C35.3695 66.7387 35.3695 66.6664 35.4415 66.6664C35.7293 66.3071 36.0909 65.9495 36.4507 65.5902C36.5946 65.518 36.4507 65.3735 36.3805 65.3013C36.0224 65.0124 35.7381 64.5069 35.3801 64.4329C35.022 64.3589 34.8746 65.0793 34.4446 65.222L34.3726 65.2942C34.2287 65.4369 34.2287 65.5091 34.3726 65.6536C34.6587 65.8702 34.9448 66.1591 35.1589 66.448L35.3011 66.7369" fill="#E6D584"/>
<path d="M142.375 65.9392C143.741 65.4407 143.957 65.2258 144.968 63.5013C145.964 65.3773 146.466 65.5235 147.54 65.9603C146.319 66.3866 145.312 67.3202 144.946 68.6149C144.594 67.3167 143.593 66.3056 142.374 65.941M144.953 67.174C145.025 67.174 145.025 67.1018 145.097 67.1018C145.385 66.7424 145.747 66.3849 146.107 66.0255C146.251 65.9533 146.107 65.8089 146.036 65.7366C145.678 65.4478 145.394 64.9422 145.036 64.8682C144.678 64.7943 144.531 65.5147 144.101 65.6574L144.029 65.7296C143.885 65.8723 143.885 65.9445 144.029 66.0889C144.315 66.3056 144.601 66.5945 144.815 66.9556L144.957 67.1722" fill="#E6D584"/>
<path d="M15.7679 63.638C16.9683 68.3235 22.7777 68.8502 25.1453 68.859H25.3611L29.5944 68.66L30.0841 71.8306C30.5737 74.7846 41.6044 79.5089 64.6293 80.682C78.9753 81.3883 86.4994 83.4334 90.5097 85.3217C94.5341 83.4651 102.076 81.4799 116.427 80.8898C139.389 79.9017 150.526 75.2655 151.041 72.3168L151.627 69.1514L155.858 69.3839H156.002C158.442 69.3945 164.183 68.9136 165.422 64.2387C166.951 58.5562 168.918 51.1475 174.894 45.8437C174.68 45.6993 174.536 45.4826 174.322 45.3382C168.706 50.6437 166.812 57.7653 165.355 63.2311C164.118 67.9061 158.303 68.387 155.936 68.3781H155.792L151.56 68.1439L151.046 71.3092C150.532 74.2597 139.466 78.8959 116.432 79.8823C102.153 80.4724 94.5411 82.4593 90.515 84.3141C86.5046 82.4258 78.9806 80.379 64.6346 79.6744C41.6816 78.5031 30.5808 73.777 30.0893 70.8231L29.5997 67.6524L25.3664 67.8515H25.1505C22.711 67.8409 16.9736 67.3142 15.7731 62.6287C14.3603 57.1506 12.5227 49.9426 6.94859 44.6653C6.80467 44.808 6.5888 45.0246 6.37292 45.1673C12.449 50.5204 14.3568 57.9432 15.7696 63.638" fill="#9C832F"/>
<defs>
<linearGradient id="paint0_linear_250_203" x1="29.5379" y1="27.068" x2="29.401" y2="61.0465" gradientUnits="userSpaceOnUse">
<stop stop-color="#E3BF5C"/>
<stop offset="1" stop-color="#FCEE8B"/>
</linearGradient>
<linearGradient id="paint1_linear_250_203" x1="50.8632" y1="27.1547" x2="50.7263" y2="61.1331" gradientUnits="userSpaceOnUse">
<stop stop-color="#E3BF5C"/>
<stop offset="1" stop-color="#FCEE8B"/>
</linearGradient>
<linearGradient id="paint2_linear_250_203" x1="50.971" y1="27.1617" x2="50.8341" y2="61.1401" gradientUnits="userSpaceOnUse">
<stop stop-color="#E3BF5C"/>
<stop offset="1" stop-color="#FCEE8B"/>
</linearGradient>
<linearGradient id="paint3_linear_250_203" x1="49.7218" y1="27.1537" x2="49.5849" y2="61.1321" gradientUnits="userSpaceOnUse">
<stop stop-color="#E3BF5C"/>
<stop offset="1" stop-color="#FCEE8B"/>
</linearGradient>
<linearGradient id="paint4_linear_250_203" x1="41.8117" y1="27.124" x2="41.6748" y2="61.1024" gradientUnits="userSpaceOnUse">
<stop stop-color="#E3BF5C"/>
<stop offset="1" stop-color="#FCEE8B"/>
</linearGradient>
<linearGradient id="paint5_linear_250_203" x1="50.957" y1="27.1556" x2="50.8201" y2="61.134" gradientUnits="userSpaceOnUse">
<stop stop-color="#E3BF5C"/>
<stop offset="1" stop-color="#FCEE8B"/>
</linearGradient>
<linearGradient id="paint6_linear_250_203" x1="50.95" y1="27.1664" x2="50.8131" y2="61.1448" gradientUnits="userSpaceOnUse">
<stop stop-color="#E3BF5C"/>
<stop offset="1" stop-color="#FCEE8B"/>
</linearGradient>
<linearGradient id="paint7_linear_250_203" x1="68.7128" y1="27.2229" x2="68.5759" y2="61.2013" gradientUnits="userSpaceOnUse">
<stop stop-color="#E3BF5C"/>
<stop offset="1" stop-color="#FCEE8B"/>
</linearGradient>
<linearGradient id="paint8_linear_250_203" x1="90.0184" y1="27.3184" x2="89.8815" y2="61.2968" gradientUnits="userSpaceOnUse">
<stop stop-color="#E3BF5C"/>
<stop offset="1" stop-color="#FCEE8B"/>
</linearGradient>
<linearGradient id="paint9_linear_250_203" x1="110.615" y1="27.402" x2="110.478" y2="61.3804" gradientUnits="userSpaceOnUse">
<stop stop-color="#E3BF5C"/>
<stop offset="1" stop-color="#FCEE8B"/>
</linearGradient>
<linearGradient id="paint10_linear_250_203" x1="131.151" y1="27.4809" x2="131.014" y2="61.4594" gradientUnits="userSpaceOnUse">
<stop stop-color="#E3BF5C"/>
<stop offset="1" stop-color="#FCEE8B"/>
</linearGradient>
<linearGradient id="paint11_linear_250_203" x1="151.503" y1="27.5625" x2="151.366" y2="61.5409" gradientUnits="userSpaceOnUse">
<stop stop-color="#E3BF5C"/>
<stop offset="1" stop-color="#FCEE8B"/>
</linearGradient>
</defs>
</svg>
