<svg width="206" height="15" viewBox="0 0 206 15" fill="none" xmlns="http://www.w3.org/2000/svg">
<g clip-path="url(#clip0_250_738)">
<path d="M138.355 6.73657V8.18867L206 7.46512L138.355 6.73657Z" fill="#803A12"/>
<path d="M67.6448 8.18867V6.73657L0 7.46512L67.6448 8.18867Z" fill="#803A12"/>
<path d="M99.4936 1.21263C91.9528 -1.63667 88.9742 9.65075 83.8065 12.4202C79.3314 14.8204 72.2701 12.016 73.3792 5.96312C74.6142 -0.773401 84.8188 0.693664 82.9687 7.56492C82.9638 7.58987 82.9977 7.60484 83.0122 7.58488C85.5016 3.18368 80.6052 -0.948052 76.4013 0.194663C71.161 1.62181 70.3231 8.55793 73.694 12.2855C77.7187 16.7366 84.223 15.2745 87.8022 11.0779C90.0881 8.39825 91.6137 4.8254 94.7667 3.05893C97.0817 1.75654 100.055 2.01602 101.46 4.60584C101.993 5.58887 102.128 6.82141 101.862 7.90923C101.678 8.66772 101.334 9.34137 100.83 9.93019C100.031 10.9981 99.019 11.1128 97.8033 10.2895C99.0722 8.98209 97.2561 5.34436 95.1783 7.48508C93.3767 9.34137 96.5732 12.0859 98.3215 12.2505C100.821 12.4851 102.792 9.90025 103.155 7.59985C103.581 4.8753 101.993 2.16073 99.4839 1.21263H99.4936Z" fill="#803A12"/>
<path d="M130.727 0.289472C126.499 -1.08278 121.249 3.024 123.826 7.58488C123.84 7.60983 123.874 7.59486 123.869 7.56492C122.019 0.693663 132.224 -0.773403 133.459 5.96313C134.568 12.016 127.511 14.8154 123.036 12.4202C117.859 9.64576 114.89 -1.63668 107.349 1.21263C104.84 2.16073 103.252 4.8753 103.678 7.59985C104.041 9.90524 106.017 12.4851 108.512 12.2506C110.26 12.0859 113.456 9.34137 111.655 7.48508C109.577 5.34436 107.756 8.98209 109.03 10.2895C107.814 11.1078 106.802 10.9981 106.003 9.93019C105.499 9.34137 105.155 8.66772 104.971 7.90923C104.705 6.80145 104.831 5.60384 105.373 4.60584C106.768 2.03598 109.751 1.73159 112.066 3.05893C115.108 4.80045 116.614 8.16372 118.794 10.7985C122.382 15.1398 128.979 16.8963 133.144 12.2855C136.437 8.64277 135.755 1.92121 130.727 0.289472Z" fill="#803A12"/>
</g>
<defs>
<clipPath id="clip0_250_738">
<rect width="206" height="15" fill="white"/>
</clipPath>
</defs>
</svg>
